<svg class="untargetable" viewBox="0 0 512.000000 512.000000" preserveAspectRatio="xMidYMid meet">
  <g class="untargetable" transform="translate(0.000000,512.000000) scale(0.100000,-0.100000)" stroke="none">
    <path class="untargetable outline" style="stroke-width: 10em" d="M1620 5104 c-172 -37 -346 -170 -423 -324 -74 -150 -72 -123 -72 -895 l0 -690 1435 0 1435 0 3 625 c2 383 -1 663 -8 723 -17 168 -92 316 -212 421 -101 88 -273 155 -399 156 -38 0 -74 -14 -190 -71 l-143 -71 -146 71 -145 71 -535 -1 c-417 0 -549 -4 -600 -15z m370 -969 c14 -7 71 -60 126 -117 118 -121 131 -152 95 -232 -29 -66 -69 -89 -146 -82 -33 3 -67 5 -75 5 -103 -8 -139 -3 -165 21 -43 40 -58 77 -51 129 4 25 6 57 5 71 0 14 -1 50 -2 80 -2 41 3 62 18 82 48 63 122 79 195 43z m1290 -2 c59 -34 70 -70 60 -198 -1 -11 2 -41 6 -67 8 -59 -6 -98 -54 -139 -33 -29 -38 -30 -96 -25 -77 7 -81 7 -142 0 -79 -9 -139 33 -158 109 -15 64 2 96 113 210 134 136 188 158 271 110z"/>
    <path class="untargetable outline" style="stroke-width: 10em" d="M690 3154 c-272 -80 -479 -259 -602 -520 -71 -153 -80 -206 -86 -493 l-4 -253 72 -147 72 -147 -71 -143 -71 -143 0 -595 c0 -563 1 -596 19 -631 11 -22 35 -46 59 -60 40 -22 40 -22 541 -22 l501 0 0 898 0 897 -43 17 c-104 43 -204 154 -250 276 -21 55 -21 73 -25 575 -2 392 -6 517 -15 516 -7 0 -50 -11 -97 -25z"/>
    <path class="untargetable outline" style="stroke-width: 10em" d="M4320 2698 c0 -527 -4 -565 -57 -674 -38 -79 -123 -163 -200 -200 l-62 -29 0 -897 -1 -898 500 0 c482 0 502 1 540 20 26 13 47 34 60 60 19 38 20 58 20 633 l0 595 -71 143 -71 143 72 147 72 147 -5 253 c-4 222 -7 264 -26 334 -95 341 -353 599 -686 686 -38 10 -73 19 -77 19 -5 0 -8 -217 -8 -482z"/>
    <path class="untargetable outline" style="stroke-width: 10em" d="M1100 2556 c0 -355 3 -379 49 -429 55 -61 -39 -57 1411 -57 1460 0 1359 -4 1413 60 15 17 31 47 37 68 6 22 10 170 10 365 l0 327 -1460 0 -1460 0 0 -334z"/>
    <path class="untargetable outline" style="stroke-width: 10em" d="M1426 1762 c-4 -3 -6 -401 -6 -884 l0 -878 1140 0 1140 0 0 875 c0 692 -3 876 -12 880 -20 6 -2256 13 -2262 7z"/>
  </g>
</svg>