<svg class="untargetable" viewBox="0 0 512.000000 512.000000" preserveAspectRatio="xMidYMid meet">
  <g class="untargetable" transform="translate(0.000000,512.000000) scale(0.100000,-0.100000)" stroke="none">
    <path class="untargetable outline" style="stroke-width: 10em" d="M3325 4180 c-237 -237 -433 -429 -437 -428 -3 2 -192 193 -419 426 -227 232 -417 421 -423 419 -20 -6 -107 -140 -161 -248 -100 -198 -161 -427 -172 -649 l-6 -115 -84 -94 c-617 -692 -1010 -1617 -1092 -2566 -6 -60 -13 -179 -17 -262 l-7 -153 1283 0 c1022 0 1281 3 1277 13 -3 6 -60 151 -128 320 l-123 309 -41 -7 c-330 -55 -631 15 -882 204 -211 159 -363 399 -420 661 -22 102 -24 333 -4 425 26 123 58 215 76 215 29 0 220 -88 218 -101 -1 -8 -12 -45 -24 -84 -19 -59 -22 -94 -23 -225 -1 -134 2 -166 22 -234 150 -519 724 -773 1202 -531 81 41 137 81 212 153 l67 64 394 -131 c420 -140 442 -145 559 -120 101 21 156 56 275 172 135 131 157 171 157 272 0 60 -4 78 -29 122 -20 34 -255 281 -685 720 -360 368 -663 678 -673 690 -19 21 -16 26 317 542 185 286 336 524 336 528 0 5 -26 34 -58 66 l-57 57 -430 -430z m-340 -1303 c135 -76 100 -282 -53 -313 -73 -15 -159 32 -188 103 -61 145 103 288 241 210z"/>
  </g>
</svg>