<?xml version="1.0" encoding="utf-8"?>
<!-- Generator: Adobe Illustrator 21.1.0, SVG Export Plug-In . SVG Version: 6.00 Build 0)  -->
<svg version="1.1" id="Layer_1" xmlns="http://www.w3.org/2000/svg" xmlns:xlink="http://www.w3.org/1999/xlink" x="0px" y="0px"
	 viewBox="0 0 64 64" style="enable-background:new 0 0 64 64;" xml:space="preserve">
<style type="text/css">
	.st0{fill:#FFFFFF;}
	.st1{fill:#ACBDC5;}
	.st2{fill-rule:evenodd;clip-rule:evenodd;fill:#314A52;}
</style>
<g id="Knight-White">
	<path class="st0" d="M31,30L10,48h43.5l-3-5.5C52.8,38.3,54,33.3,54,28C54,12.5,43.5,2,28,2l3,4.5L10,24v4l5.5,4l8.5-4L31,30z"/>
	<path class="st1" d="M33.3,7L30.7,4L8,23.1v5.8l2.9,2.9c2.8,2.8,7.3,3.1,10.5,0.7l3.1-2.3l3.3,0.8L10.1,45.8c0,0-0.1,0-0.1,0
		l-0.4,0.5L8,47.6V56c0,4.4,3.6,8,8,8h32c4.4,0,8-3.6,8-8v-8l-7-4l6-20l-7-10.2c0,0.1,0,0.1,0,0.2c0,18.8-12.5,34-28,34
		c-1.9,0-3.7-0.2-5.5-0.7L36.3,29l-12.7-3.2L19,29.3c-1.6,1.2-3.8,1-5.2-0.4L12,27.2v-2.2L33.3,7z"/>
	<path class="st2" d="M24.1,0H28c15.5,0,28,12.5,28,28c0,5.7-1.7,10.9-4.6,15.3l4.6,4.6V56c0,4.4-3.6,8-8,8h-4v-4h4c2.2,0,4-1.8,4-4
		v-6.4l-5.8-5.8l1-1.4c3-4,4.8-9,4.8-14.4c0-11.8-8.6-21.7-19.8-23.6l3.9,5.5l-3.2,2.3L24.1,0z"/>
</g>
</svg>
