<svg class="untargetable" viewBox="0 0 512 512">
  <path class="untargetable outline" d="M 150.57 34.424 C 153.463 23.014 163.723 13.506 177.052 13.457 C 187.838 13.416 196.871 19.697 201.343 28.274 C 211.866 48.579 233.087 62.356 257.465 62.266 C 281.843 62.176 303.064 48.243 313.587 27.859 C 318.06 19.249 327.092 12.901 337.878 12.862 C 351.294 12.812 361.554 22.245 364.36 33.634 C 370.499 57.99 392.597 75.885 418.817 75.788 C 428.287 75.753 437.232 73.352 444.948 69.203 C 452.314 65.317 461.522 65.195 469.151 69.902 C 480.551 76.876 484.146 91.769 477.219 103.195 L 383.477 258.228 L 369.71 258.279 L 334.282 258.41 L 180.648 258.977 L 145.221 259.109 L 131.453 259.16 L 37.711 104.819 C 30.784 93.445 34.379 78.524 45.779 71.467 C 53.408 66.791 62.616 66.757 69.982 70.588 C 77.786 74.681 86.643 77.016 96.114 76.981 C 122.333 76.883 144.431 58.825 150.57 34.424 Z M 257.465 104.358 Z" style=""/>
  <path class="untargetable outline" d="M 149.504 277.536 C 152.397 266.126 162.657 256.618 175.986 256.569 C 186.772 256.528 195.805 262.809 200.277 271.386 C 210.8 291.691 232.021 305.468 256.399 305.378 C 280.777 305.288 301.998 291.355 312.521 270.971 C 316.994 262.361 326.026 256.013 336.812 255.974 C 350.228 255.924 360.488 265.357 363.294 276.746 C 369.433 301.102 391.531 318.997 417.751 318.9 C 427.221 318.865 436.166 316.464 443.882 312.315 C 451.248 308.429 460.456 308.307 468.085 313.014 C 479.485 319.988 483.08 334.881 476.153 346.307 L 382.411 501.34 L 368.644 501.391 L 333.216 501.522 L 179.582 502.089 L 144.155 502.221 L 130.387 502.272 L 36.645 347.931 C 29.718 336.557 33.313 321.636 44.713 314.579 C 52.342 309.903 61.55 309.869 68.916 313.7 C 76.72 317.793 85.577 320.128 95.048 320.093 C 121.267 319.995 143.365 301.937 149.504 277.536 Z M 256.399 347.47 Z" style="transform-origin: 256.399px 379.123px;" transform="matrix(-0.99995392561, -0.009616000578, 0.009616000578, -0.99995392561, -0.000011010717, -0.00000615915)"/>
</svg>