<svg class="untargetable" viewBox="0 0 512 512" preserveAspectRatio="xMidYMid meet">
  <g class="untargetable outline" transform="translate(0.000000,512.000000) scale(0.100000,-0.100000)" stroke="none">
    <path class="untargetable" fill="DarkGray" d="M0 3040 l0 -2080 119 0 120 0 6 48 c33 279 174 485 408 598 67 32 163 58 260 69 l47 6 0 120 0 120 135 156 c74 85 135 159 135 163 0 4 -74 77 -165 161 -90 85 -165 156 -165 159 0 3 74 74 165 159 91 85 165 157 165 161 0 4 -74 77 -165 161 -90 85 -165 156 -165 159 0 3 74 74 165 159 91 85 165 157 165 161 0 4 -74 77 -165 161 -90 85 -165 156 -165 159 0 3 74 74 165 159 91 85 165 157 165 161 0 4 -74 77 -165 161 -90 85 -165 156 -165 159 0 3 74 74 165 159 91 85 165 157 165 161 0 4 -61 78 -135 164 l-136 156 -479 0 -480 0 0 -2080z"/>
    <path class="untargetable" d="M886 1369 c-166 -27 -309 -175 -337 -348 -35 -219 125 -435 349 -471 221 -36 436 123 473 349 35 218 -124 435 -346 471 -67 11 -70 11 -139 -1z m224 -409 l0 -150 -150 0 -150 0 0 150 0 150 150 0 150 0 0 -150z"/>
    <path class="untargetable" d="M2077 1095 l-156 -135 -120 0 -120 0 -6 -47 c-33 -280 -174 -486 -408 -599 -67 -32 -163 -58 -259 -69 l-48 -6 0 -120 0 -119 2080 0 2080 0 -2 482 -3 482 -153 133 c-84 73 -157 133 -161 133 -5 0 -77 -74 -162 -165 -85 -91 -156 -165 -159 -165 -3 0 -74 74 -159 165 -85 91 -157 165 -161 165 -4 0 -76 -74 -161 -165 -85 -91 -156 -165 -159 -165 -3 0 -74 74 -159 165 -85 91 -157 165 -161 165 -4 0 -76 -74 -161 -165 -85 -91 -156 -165 -159 -165 -3 0 -74 74 -159 165 -85 91 -157 165 -161 165 -4 0 -76 -74 -161 -165 -85 -91 -156 -165 -159 -165 -3 0 -74 74 -159 165 -85 91 -157 165 -161 165 -4 0 -78 -61 -163 -135z"/>
  </g>
</svg>